<svg width="27" height="27" viewBox="0 0 27 27" fill="none" xmlns="http://www.w3.org/2000/svg">
<path d="M22.5 22.5L17.9438 17.9438M17.9438 17.9438C18.6751 17.2125 19.2552 16.3443 19.651 15.3888C20.0467 14.4333 20.2504 13.4092 20.2504 12.375C20.2504 11.3408 20.0467 10.3167 19.651 9.36125C19.2552 8.40576 18.6751 7.53758 17.9438 6.80629C17.2125 6.07499 16.3443 5.49489 15.3888 5.09911C14.4333 4.70334 13.4092 4.49963 12.375 4.49963C11.3408 4.49963 10.3167 4.70334 9.36125 5.09911C8.40576 5.49489 7.53758 6.07499 6.80629 6.80629C5.32936 8.28321 4.49963 10.2863 4.49963 12.375C4.49963 14.4637 5.32936 16.4669 6.80629 17.9438C8.28321 19.4207 10.2863 20.2504 12.375 20.2504C14.4637 20.2504 16.4669 19.4207 17.9438 17.9438Z" stroke="white" stroke-width="2" stroke-linecap="round" stroke-linejoin="round"/>
</svg>
