<svg width="27" height="27" viewBox="0 0 27 27" fill="none" xmlns="http://www.w3.org/2000/svg">
<path d="M19.1063 4.51547C19.1714 4.51573 19.2363 4.51721 19.3025 4.51879C21.0909 4.56129 23.2829 5.08326 26.0129 6.29689V19.1311C22.8083 17.6113 20.3852 17.1764 18.4076 17.386C16.6409 17.5732 15.2601 18.2645 14.001 19.0306V6.21773C15.2253 5.28201 16.648 4.63359 18.5346 4.53023C18.725 4.51971 18.9157 4.51478 19.1064 4.51547H19.1063ZM7.92832 4.51547C8.12343 4.51462 8.31444 4.52011 8.50017 4.53023C10.3866 4.63359 11.8093 5.28201 13.0336 6.21773V19.0306C11.7746 18.2645 10.3938 17.5732 8.62705 17.3859C6.6494 17.1764 4.22636 17.6112 1.0217 19.1311V6.29694C3.75175 5.08331 5.94376 4.56134 7.73215 4.51874C7.79833 4.51726 7.86324 4.51578 7.92832 4.51557V4.51547ZM7.62668 18.3203C7.68141 18.3202 7.73605 18.3212 7.78989 18.322C8.04344 18.326 8.28717 18.3415 8.52316 18.3665C10.3125 18.5562 11.6663 19.3144 13.0335 20.1826V20.1974C13.3792 20.0925 13.7201 20.0724 14.057 20.1463C15.4052 19.2932 16.7466 18.5536 18.5114 18.3665C18.8064 18.3352 19.1147 18.3199 19.4376 18.3221C21.1272 18.3333 23.2257 18.8377 26.0129 20.2172V22.46C22.8082 20.94 20.3854 20.5053 18.4076 20.7149C17.4297 20.8185 16.5705 21.0759 15.7841 21.4152C16.031 21.735 16.275 22.1149 16.5158 22.5589H10.3376C10.6504 22.1254 10.9598 21.7461 11.2671 21.4219C10.4763 21.079 9.61181 20.8192 8.62715 20.7149C6.64946 20.5053 4.22658 20.9401 1.0218 22.4601V20.2173C3.82516 18.8298 5.93216 18.3261 7.62678 18.3204L7.62668 18.3203Z" fill="white"/>
</svg>
