<svg width="27" height="27" viewBox="0 0 27 27" fill="none" xmlns="http://www.w3.org/2000/svg">
<path d="M2.95312 6.75C2.95312 6.41434 3.08647 6.09242 3.32382 5.85507C3.56117 5.61772 3.88309 5.48438 4.21875 5.48438H22.7812C23.1169 5.48438 23.4388 5.61772 23.6762 5.85507C23.9135 6.09242 24.0469 6.41434 24.0469 6.75C24.0469 7.08566 23.9135 7.40758 23.6762 7.64493C23.4388 7.88228 23.1169 8.01562 22.7812 8.01562H4.21875C3.88309 8.01562 3.56117 7.88228 3.32382 7.64493C3.08647 7.40758 2.95312 7.08566 2.95312 6.75ZM4.21875 12.2344H17.7188C18.0544 12.2344 18.3763 12.101 18.6137 11.8637C18.851 11.6263 18.9844 11.3044 18.9844 10.9688C18.9844 10.6331 18.851 10.3112 18.6137 10.0738C18.3763 9.83647 18.0544 9.70313 17.7188 9.70312H4.21875C3.88309 9.70313 3.56117 9.83647 3.32382 10.0738C3.08647 10.3112 2.95312 10.6331 2.95312 10.9688C2.95312 11.3044 3.08647 11.6263 3.32382 11.8637C3.56117 12.101 3.88309 12.2344 4.21875 12.2344ZM22.7812 13.9219H4.21875C3.88309 13.9219 3.56117 14.0552 3.32382 14.2926C3.08647 14.5299 2.95312 14.8518 2.95312 15.1875C2.95312 15.5232 3.08647 15.8451 3.32382 16.0824C3.56117 16.3198 3.88309 16.4531 4.21875 16.4531H22.7812C23.1169 16.4531 23.4388 16.3198 23.6762 16.0824C23.9135 15.8451 24.0469 15.5232 24.0469 15.1875C24.0469 14.8518 23.9135 14.5299 23.6762 14.2926C23.4388 14.0552 23.1169 13.9219 22.7812 13.9219ZM17.7188 18.1406H4.21875C3.88309 18.1406 3.56117 18.274 3.32382 18.5113C3.08647 18.7487 2.95312 19.0706 2.95312 19.4062C2.95312 19.7419 3.08647 20.0638 3.32382 20.3012C3.56117 20.5385 3.88309 20.6719 4.21875 20.6719H17.7188C18.0544 20.6719 18.3763 20.5385 18.6137 20.3012C18.851 20.0638 18.9844 19.7419 18.9844 19.4062C18.9844 19.0706 18.851 18.7487 18.6137 18.5113C18.3763 18.274 18.0544 18.1406 17.7188 18.1406Z" fill="white"/>
</svg>
