<svg width="27" height="27" viewBox="0 0 27 27" fill="none" xmlns="http://www.w3.org/2000/svg">
<path d="M13.5 5.90625C13.1662 5.90625 12.84 5.80728 12.5625 5.62186C12.285 5.43643 12.0687 5.17288 11.941 4.86453C11.8132 4.55618 11.7798 4.21688 11.8449 3.88954C11.91 3.56219 12.0708 3.26151 12.3068 3.02551C12.5428 2.78951 12.8434 2.62879 13.1708 2.56368C13.4981 2.49856 13.8374 2.53198 14.1458 2.6597C14.4541 2.78743 14.7177 3.00372 14.9031 3.28123C15.0885 3.55873 15.1875 3.88499 15.1875 4.21875C15.1875 4.6663 15.0097 5.09553 14.6932 5.41199C14.3768 5.72846 13.9476 5.90625 13.5 5.90625ZM21.9375 4.21875C21.9375 3.88499 21.8385 3.55873 21.6531 3.28123C21.4677 3.00372 21.2041 2.78743 20.8958 2.6597C20.5874 2.53198 20.2481 2.49856 19.9208 2.56368C19.5934 2.62879 19.2928 2.78951 19.0568 3.02551C18.8208 3.26151 18.66 3.56219 18.5949 3.88954C18.5298 4.21688 18.5632 4.55618 18.691 4.86453C18.8187 5.17288 19.035 5.43643 19.3125 5.62186C19.59 5.80728 19.9162 5.90625 20.25 5.90625C20.6976 5.90625 21.1268 5.72846 21.4432 5.41199C21.7597 5.09553 21.9375 4.6663 21.9375 4.21875ZM8.4375 4.21875C8.4375 3.88499 8.33853 3.55873 8.1531 3.28123C7.96768 3.00372 7.70413 2.78743 7.39578 2.6597C7.08743 2.53198 6.74813 2.49856 6.42079 2.56368C6.09344 2.62879 5.79276 2.78951 5.55676 3.02551C5.32076 3.26151 5.16004 3.56219 5.09492 3.88954C5.02981 4.21688 5.06323 4.55618 5.19095 4.86453C5.31868 5.17288 5.53497 5.43643 5.81247 5.62186C6.08998 5.80728 6.41624 5.90625 6.75 5.90625C7.19755 5.90625 7.62677 5.72846 7.94324 5.41199C8.25971 5.09553 8.4375 4.6663 8.4375 4.21875ZM15.1875 22.7812L15.1875 9.28125C15.1875 9.05747 15.0986 8.84286 14.9404 8.68463C14.7821 8.5264 14.5675 8.4375 14.3438 8.4375H12.6562C12.4325 8.4375 12.2179 8.5264 12.0596 8.68463C11.9014 8.84286 11.8125 9.05747 11.8125 9.28125L11.8125 22.7812C11.8125 23.005 11.9014 23.2196 12.0596 23.3779C12.2179 23.5361 12.4325 23.625 12.6562 23.625H14.3437C14.5675 23.625 14.7821 23.5361 14.9404 23.3779C15.0986 23.2196 15.1875 23.005 15.1875 22.7812ZM21.9375 22.7812L21.9375 9.28125C21.9375 9.05747 21.8486 8.84286 21.6904 8.68463C21.5321 8.5264 21.3175 8.4375 21.0938 8.4375H19.4062C19.1825 8.4375 18.9679 8.5264 18.8096 8.68463C18.6514 8.84286 18.5625 9.05747 18.5625 9.28125L18.5625 22.7812C18.5625 23.005 18.6514 23.2196 18.8096 23.3779C18.9679 23.5361 19.1825 23.625 19.4062 23.625H21.0937C21.3175 23.625 21.5321 23.5361 21.6904 23.3779C21.8486 23.2196 21.9375 23.005 21.9375 22.7812ZM8.4375 22.7812L8.4375 9.28125C8.4375 9.05747 8.34861 8.84286 8.19037 8.68463C8.03214 8.5264 7.81753 8.4375 7.59375 8.4375H5.90625C5.68247 8.4375 5.46786 8.5264 5.30963 8.68463C5.15139 8.84286 5.0625 9.05747 5.0625 9.28125L5.0625 22.7812C5.0625 23.005 5.15139 23.2196 5.30963 23.3779C5.46786 23.5361 5.68247 23.625 5.90625 23.625H7.59375C7.81753 23.625 8.03214 23.5361 8.19037 23.3779C8.34861 23.2196 8.4375 23.005 8.4375 22.7812Z" fill="white"/>
</svg>
