<svg width="27" height="27" viewBox="0 0 27 27" fill="none" xmlns="http://www.w3.org/2000/svg">
<path d="M13.5 18C14.7375 18 15.75 19.0125 15.75 20.25C15.75 21.4875 14.7375 22.5 13.5 22.5C12.2625 22.5 11.25 21.4875 11.25 20.25C11.25 19.0125 12.2625 18 13.5 18ZM13.5 4.5C14.7375 4.5 15.75 5.5125 15.75 6.75C15.75 7.9875 14.7375 9 13.5 9C12.2625 9 11.25 7.9875 11.25 6.75C11.25 5.5125 12.2625 4.5 13.5 4.5ZM6.75 18C7.9875 18 9 19.0125 9 20.25C9 21.4875 7.9875 22.5 6.75 22.5C5.5125 22.5 4.5 21.4875 4.5 20.25C4.5 19.0125 5.5125 18 6.75 18ZM6.75 11.25C7.9875 11.25 9 12.2625 9 13.5C9 14.7375 7.9875 15.75 6.75 15.75C5.5125 15.75 4.5 14.7375 4.5 13.5C4.5 12.2625 5.5125 11.25 6.75 11.25ZM6.75 4.5C7.9875 4.5 9 5.5125 9 6.75C9 7.9875 7.9875 9 6.75 9C5.5125 9 4.5 7.9875 4.5 6.75C4.5 5.5125 5.5125 4.5 6.75 4.5ZM20.25 18C21.4875 18 22.5 19.0125 22.5 20.25C22.5 21.4875 21.4875 22.5 20.25 22.5C19.0125 22.5 18 21.4875 18 20.25C18 19.0125 19.0125 18 20.25 18ZM20.25 11.25C21.4875 11.25 22.5 12.2625 22.5 13.5C22.5 14.7375 21.4875 15.75 20.25 15.75C19.0125 15.75 18 14.7375 18 13.5C18 12.2625 19.0125 11.25 20.25 11.25ZM20.25 4.5C21.4875 4.5 22.5 5.5125 22.5 6.75C22.5 7.9875 21.4875 9 20.25 9C19.0125 9 18 7.9875 18 6.75C18 5.5125 19.0125 4.5 20.25 4.5Z" fill="white"/>
</svg>
