<svg width="27" height="27" viewBox="0 0 27 27" fill="none" xmlns="http://www.w3.org/2000/svg">
<path d="M15.9637 15.9637L6.75 20.25L11.0363 11.0363L20.25 6.75M13.5 2.25C12.0226 2.25 10.5597 2.54099 9.19481 3.10636C7.8299 3.67172 6.58971 4.50039 5.54505 5.54505C3.43526 7.65483 2.25 10.5163 2.25 13.5C2.25 16.4837 3.43526 19.3452 5.54505 21.455C6.58971 22.4996 7.8299 23.3283 9.19481 23.8936C10.5597 24.459 12.0226 24.75 13.5 24.75C16.4837 24.75 19.3452 23.5647 21.455 21.455C23.5647 19.3452 24.75 16.4837 24.75 13.5C24.75 12.0226 24.459 10.5597 23.8936 9.19481C23.3283 7.8299 22.4996 6.58971 21.455 5.54505C20.4103 4.50039 19.1701 3.67172 17.8052 3.10636C16.4403 2.54099 14.9774 2.25 13.5 2.25ZM13.5 12.2625C13.1718 12.2625 12.857 12.3929 12.625 12.625C12.3929 12.857 12.2625 13.1718 12.2625 13.5C12.2625 13.8282 12.3929 14.143 12.625 14.375C12.857 14.6071 13.1718 14.7375 13.5 14.7375C13.8282 14.7375 14.143 14.6071 14.375 14.375C14.6071 14.143 14.7375 13.8282 14.7375 13.5C14.7375 13.1718 14.6071 12.857 14.375 12.625C14.143 12.3929 13.8282 12.2625 13.5 12.2625Z" fill="white"/>
</svg>
