<svg width="27" height="27" viewBox="0 0 27 27" fill="none" xmlns="http://www.w3.org/2000/svg">
<path d="M13.9218 14.3438V21.0938C13.9218 21.4294 13.7885 21.7513 13.5511 21.9887C13.3138 22.226 12.9919 22.3594 12.6562 22.3594C12.3205 22.3594 11.9986 22.226 11.7613 21.9887C11.5239 21.7513 11.3906 21.4294 11.3906 21.0938V17.4023L5.11413 23.6767C4.99641 23.7944 4.85664 23.8878 4.70282 23.9515C4.549 24.0152 4.38414 24.048 4.21765 24.048C4.05116 24.048 3.88629 24.0152 3.73248 23.9515C3.57866 23.8878 3.43889 23.7944 3.32117 23.6767C3.20344 23.559 3.11005 23.4192 3.04634 23.2654C2.98262 23.1115 2.94983 22.9467 2.94983 22.7802C2.94983 22.6137 2.98262 22.4488 3.04634 22.295C3.11005 22.1412 3.20344 22.0014 3.32117 21.8837L9.59761 15.6094H5.9062C5.57054 15.6094 5.24862 15.476 5.01127 15.2387C4.77392 15.0013 4.64058 14.6794 4.64058 14.3438C4.64058 14.0081 4.77392 13.6862 5.01127 13.4488C5.24862 13.2115 5.57054 13.0781 5.9062 13.0781H12.6562C12.9919 13.0781 13.3138 13.2115 13.5511 13.4488C13.7885 13.6862 13.9218 14.0081 13.9218 14.3438ZM21.9375 2.95312H8.43745C7.87801 2.95313 7.34149 3.17536 6.9459 3.57095C6.55032 3.96653 6.32808 4.50306 6.32808 5.0625V9.70312C6.32808 10.0388 6.46142 10.3607 6.69877 10.5981C6.93612 10.8354 7.25804 10.9687 7.5937 10.9688C7.92937 10.9687 8.25129 10.8354 8.48864 10.5981C8.72599 10.3607 8.85933 10.0388 8.85933 9.70312V5.48438H21.5156V18.1406H17.2968C16.9612 18.1406 16.6392 18.274 16.4019 18.5113C16.1645 18.7487 16.0312 19.0706 16.0312 19.4062C16.0312 19.7419 16.1645 20.0638 16.4019 20.3012C16.6392 20.5385 16.9612 20.6719 17.2968 20.6719H21.9375C22.4969 20.6719 23.0334 20.4496 23.429 20.0541C23.8246 19.6585 24.0468 19.1219 24.0468 18.5625V5.0625C24.0468 4.50306 23.8246 3.96653 23.429 3.57095C23.0334 3.17536 22.4969 2.95312 21.9375 2.95312Z" fill="white"/>
</svg>
