<svg width="24" height="24" viewBox="0 0 24 24" fill="none" xmlns="http://www.w3.org/2000/svg">
<path d="M22.7981 6.45646C22.701 6.15317 22.516 5.88552 22.2667 5.68742C22.0174 5.48932 21.7148 5.36968 21.3975 5.34364L18.1321 5.06239L16.859 2.10083C16.734 1.81099 16.5268 1.5641 16.2631 1.39065C15.9994 1.21719 15.6906 1.12476 15.375 1.12476C15.0593 1.12476 14.7506 1.21719 14.4868 1.39065C14.2231 1.5641 14.0159 1.81099 13.8909 2.10083L12.6187 5.06896L9.35246 5.34364C9.03583 5.36878 8.73376 5.48725 8.48446 5.68406C8.23515 5.88088 8.04981 6.1472 7.95187 6.44935C7.85393 6.7515 7.84779 7.07591 7.93422 7.38156C8.02066 7.6872 8.19578 7.96035 8.43746 8.16646L10.9031 10.2721L10.1653 13.3996C10.0944 13.7075 10.1156 14.0294 10.2262 14.3254C10.3367 14.6214 10.5318 14.8783 10.7872 15.0644C11.0425 15.2504 11.3469 15.3574 11.6625 15.3719C11.9781 15.3864 12.2911 15.3079 12.5625 15.1461L15.375 13.4755L18.1875 15.1461C18.4588 15.3087 18.772 15.3878 19.088 15.3736C19.4039 15.3595 19.7088 15.2526 19.9644 15.0664C20.2201 14.8802 20.4154 14.6228 20.5258 14.3264C20.6363 14.03 20.657 13.7077 20.5856 13.3996L19.8478 10.2721L22.3125 8.16646C22.5534 7.96136 22.7281 7.68945 22.8145 7.38509C22.901 7.08072 22.8952 6.75757 22.7981 6.45646ZM18.0853 8.81239C17.8595 9.00382 17.6913 9.25418 17.5994 9.53558C17.5075 9.81698 17.4956 10.1184 17.565 10.4061L18.0468 12.449L16.2018 11.353C15.9518 11.2039 15.6661 11.1252 15.375 11.1252C15.0838 11.1252 14.7981 11.2039 14.5481 11.353L12.7031 12.4461L13.185 10.4061C13.2549 10.1184 13.2432 9.81683 13.1513 9.53532C13.0594 9.25382 12.8909 9.00348 12.6646 8.81239L11.0709 7.45396L13.184 7.27583C13.4751 7.25211 13.7543 7.14962 13.9916 6.97935C14.229 6.80908 14.4155 6.57745 14.5312 6.30927L15.375 4.34896L16.2187 6.30833C16.3339 6.57746 16.5203 6.81009 16.7579 6.98122C16.9954 7.15235 17.2751 7.2555 17.5668 7.27958L19.68 7.45771L18.0853 8.81239ZM3.0459 17.2958C2.83455 17.5072 2.54791 17.6259 2.24902 17.6259C1.95014 17.6259 1.66349 17.5072 1.45215 17.2958C1.2408 17.0845 1.12207 16.7978 1.12207 16.499C1.12207 16.2001 1.2408 15.9134 1.45215 15.7021L6.32715 10.8271C6.53849 10.6157 6.82514 10.497 7.12402 10.497C7.42291 10.497 7.70955 10.6157 7.9209 10.8271C8.13224 11.0384 8.25097 11.3251 8.25097 11.624C8.25097 11.9228 8.13224 12.2095 7.9209 12.4208L3.0459 17.2958ZM9.4209 17.6708L4.5459 22.5458C4.33455 22.7572 4.04791 22.8759 3.74902 22.8759C3.45014 22.8759 3.16349 22.7572 2.95215 22.5458C2.7408 22.3345 2.62207 22.0478 2.62207 21.749C2.62207 21.4501 2.7408 21.1634 2.95215 20.9521L7.82715 16.0771C8.03849 15.8657 8.32514 15.747 8.62402 15.747C8.92291 15.747 9.20955 15.8657 9.4209 16.0771C9.63224 16.2884 9.75097 16.5751 9.75097 16.874C9.75097 17.1728 9.63224 17.4595 9.4209 17.6708ZM16.1709 16.0771C16.2758 16.1816 16.359 16.3058 16.4158 16.4425C16.4726 16.5793 16.5018 16.7259 16.5018 16.874C16.5018 17.022 16.4726 17.1686 16.4158 17.3054C16.359 17.4421 16.2758 17.5663 16.1709 17.6708L11.2959 22.5458C11.0846 22.7572 10.7979 22.8759 10.499 22.8759C10.2001 22.8759 9.91349 22.7572 9.70215 22.5458C9.4908 22.3345 9.37207 22.0478 9.37207 21.749C9.37207 21.4501 9.4908 21.1634 9.70215 20.9521L14.5771 16.0771C14.6818 15.9723 14.8061 15.8893 14.9429 15.8326C15.0797 15.776 15.2263 15.747 15.3744 15.7471C15.5225 15.7473 15.6691 15.7767 15.8057 15.8336C15.9424 15.8906 16.0665 15.974 16.1709 16.079V16.0771Z" fill="white"/>
</svg>
