<svg width="24" height="24" viewBox="0 0 24 24" fill="currentColor" xmlns="http://www.w3.org/2000/svg">
<path d="M12 4.425C12.1333 4.425 12.2583 4.44567 12.375 4.487C12.4916 4.52833 12.6 4.59933 12.7 4.7L19.3 11.3C19.5 11.5 19.6 11.7373 19.6 12.012C19.6 12.2867 19.5 12.5243 19.3 12.725C19.1 12.925 18.8666 13.025 18.6 13.025C18.3333 13.025 18.1 12.925 17.9 12.725L13 7.825V19.025C13 19.3083 12.904 19.5417 12.712 19.725C12.52 19.9083 12.2826 20 12 20C11.7166 20 11.479 19.904 11.287 19.712C11.095 19.52 10.9993 19.2827 11 19V7.825L6.09998 12.725C5.89998 12.925 5.66664 13.025 5.39997 13.025C5.13331 13.025 4.89998 12.925 4.69998 12.725C4.49998 12.525 4.39997 12.2873 4.39997 12.012C4.39997 11.7367 4.49998 11.4993 4.69998 11.3L11.3 4.7C11.4 4.6 11.5083 4.529 11.625 4.487C11.7416 4.445 11.8666 4.42433 12 4.425Z"/>
</svg>
