<svg width="16" height="16" viewBox="0 0 16 16" fill="none" xmlns="http://www.w3.org/2000/svg">
<path d="M7.6 15.5749C7.46667 15.5749 7.34167 15.5542 7.225 15.5129C7.10833 15.4715 7 15.4005 6.9 15.2999L0.3 8.69988C0.0999997 8.49988 0 8.26254 0 7.98788C0 7.71321 0.0999997 7.47554 0.3 7.27488C0.5 7.07488 0.733333 6.97488 1 6.97488C1.26667 6.97488 1.5 7.07488 1.7 7.27488L6.6 12.1749L6.6 0.974878C6.6 0.691545 6.696 0.458211 6.888 0.274878C7.08 0.0915447 7.31733 -0.00012207 7.6 -0.00012207C7.88333 -0.00012207 8.121 0.095878 8.313 0.287878C8.505 0.479878 8.60067 0.717211 8.6 0.999878V12.1749L13.5 7.27488C13.7 7.07488 13.9333 6.97488 14.2 6.97488C14.4667 6.97488 14.7 7.07488 14.9 7.27488C15.1 7.47488 15.2 7.71254 15.2 7.98788C15.2 8.26321 15.1 8.50054 14.9 8.69988L8.3 15.2999C8.2 15.3999 8.09167 15.4709 7.975 15.5129C7.85833 15.5549 7.73333 15.5755 7.6 15.5749Z" fill="#F7CF5D"/>
</svg>
