<svg width="52" height="48" viewBox="0 0 52 48" fill="none" xmlns="http://www.w3.org/2000/svg">
<rect width="52" height="48" rx="24" fill="#50A1A7"/>
<path d="M24.4375 26.5C25.1834 26.5 25.8988 26.7963 26.4262 27.3238C26.9537 27.8512 27.25 28.5666 27.25 29.3125V31.19L27.24 31.325C26.8525 33.9838 24.465 35.2613 20.4587 35.2613C16.4675 35.2613 14.0412 33.9987 13.5175 31.3713L13.5 31.1875V29.3125C13.5 28.5666 13.7963 27.8512 14.3238 27.3238C14.8512 26.7963 15.5666 26.5 16.3125 26.5H24.4375ZM20.375 16.5C20.9495 16.5 21.5184 16.6132 22.0492 16.833C22.58 17.0529 23.0623 17.3752 23.4686 17.7814C23.8748 18.1877 24.1971 18.67 24.417 19.2008C24.6368 19.7316 24.75 20.3005 24.75 20.875C24.75 21.4495 24.6368 22.0184 24.417 22.5492C24.1971 23.08 23.8748 23.5623 23.4686 23.9686C23.0623 24.3748 22.58 24.6971 22.0492 24.917C21.5184 25.1368 20.9495 25.25 20.375 25.25C19.2147 25.25 18.1019 24.7891 17.2814 23.9686C16.4609 23.1481 16 22.0353 16 20.875C16 19.7147 16.4609 18.6019 17.2814 17.7814C18.1019 16.9609 19.2147 16.5 20.375 16.5ZM35.6875 11.5C36.4334 11.5 37.1488 11.7963 37.6762 12.3238C38.2037 12.8512 38.5 13.5666 38.5 14.3125V18.6875C38.5 19.0568 38.4273 19.4226 38.2859 19.7638C38.1446 20.105 37.9374 20.4151 37.6762 20.6762C37.4151 20.9374 37.105 21.1446 36.7638 21.2859C36.4226 21.4273 36.0568 21.5 35.6875 21.5H33.7463L30.57 24.2587C30.389 24.4161 30.1666 24.518 29.9292 24.5524C29.6919 24.5868 29.4497 24.5522 29.2315 24.4527C29.0132 24.3532 28.8283 24.193 28.6986 23.9913C28.5689 23.7896 28.4999 23.5548 28.5 23.315V21.4825C27.8125 21.4056 27.1774 21.0781 26.7162 20.5624C26.255 20.0468 26 19.3793 26 18.6875V14.3125C26 13.5666 26.2963 12.8512 26.8238 12.3238C27.3512 11.7963 28.0666 11.5 28.8125 11.5H35.6875Z" fill="white"/>
</svg>
