<svg width="16" height="17" viewBox="0 0 16 17" fill="none" xmlns="http://www.w3.org/2000/svg">
<path d="M7.51289 15.8C7.32956 15.6167 7.23356 15.3834 7.22489 15.1C7.21623 14.8167 7.30389 14.5834 7.48789 14.4L12.3879 9.50005H1.21289C0.929561 9.50005 0.691894 9.40405 0.499894 9.21205C0.307894 9.02005 0.212227 8.78272 0.212894 8.50005C0.212894 8.21672 0.308894 7.97905 0.500894 7.78705C0.692894 7.59505 0.930227 7.49938 1.21289 7.50005H12.3879L7.48789 2.60005C7.30456 2.41672 7.21689 2.18338 7.22489 1.90005C7.23289 1.61672 7.32889 1.38338 7.51289 1.20005C7.69623 1.01672 7.92956 0.925049 8.21289 0.925049C8.49623 0.925049 8.72956 1.01672 8.91289 1.20005L15.5129 7.80005C15.6129 7.88338 15.6839 7.98772 15.7259 8.11305C15.7679 8.23838 15.7886 8.36738 15.7879 8.50005C15.7879 8.63338 15.7672 8.75838 15.7259 8.87505C15.6846 8.99172 15.6136 9.10005 15.5129 9.20005L8.91289 15.8C8.72956 15.9834 8.49623 16.075 8.21289 16.075C7.92956 16.075 7.69623 15.9834 7.51289 15.8Z" fill="#50A1A7"/>
</svg>
